<?xml version="1.0" standalone="no"?><!DOCTYPE svg PUBLIC "-//W3C//DTD SVG 1.1//EN" "http://www.w3.org/Graphics/SVG/1.1/DTD/svg11.dtd"><svg t="1546401187233" class="icon" style="" viewBox="0 0 1024 1024" version="1.1" xmlns="http://www.w3.org/2000/svg" p-id="3678" xmlns:xlink="http://www.w3.org/1999/xlink" width="200" height="200"><defs><style type="text/css"></style></defs><path d="M994 482a30 30 0 0 1 0 60h-33.024c-14.84 224.272-194.704 404.136-418.976 418.976v33.024a30 30 0 0 1-60 0v-33.024C257.728 946.136 77.856 766.272 63.024 542H30a30 30 0 0 1 0-60h33.024C77.856 257.728 257.728 77.864 482 63.024V30a30 30 0 0 1 60 0v33.024c224.272 14.84 404.136 194.704 418.976 418.976h33.024z m-512-358.856c-191.184 14.608-344.24 167.68-358.856 358.856h60.24C197.688 323.928 323.92 197.688 482 183.376v-60.24z m0 777.712v-60.24C323.928 826.32 197.696 700.08 183.376 542h-60.24c14.616 191.184 167.68 344.24 358.864 358.856zM512 482c49.624 0 90 40.376 90 90a89.84 89.84 0 0 1-60 84.856V692a30 30 0 0 1-60 0v-34.952c-15.584-5.232-30.64-14.504-44.184-27.624a30 30 0 0 1 41.752-43.096c14.6 14.16 30.68 19.008 44.112 13.32a29.976 29.976 0 0 0 18.32-27.648A30.032 30.032 0 0 0 512 542c-49.624 0-90-40.376-90-90 0-37.696 23.792-71.68 59.2-84.584l0.8-0.272V332a30 30 0 0 1 60 0v34.848c19.792 6.664 38.672 19.936 54.888 39.248a30 30 0 1 1-45.944 38.592c-15.864-18.896-33.8-26.504-49.208-20.896A30.104 30.104 0 0 0 482 452 30.032 30.032 0 0 0 512 482z m0 300c148.88 0 270-121.12 270-270S660.88 242 512 242 242 363.12 242 512 363.12 782 512 782z m30 118.856c191.184-14.608 344.24-167.872 358.856-359.056h-60.24c-14.304 158.072-140.544 284.512-298.616 298.824v60.24z m298.624-418.856h60.24c-14.616-191.184-167.68-344.24-358.864-358.856v60.24c158.072 14.304 284.304 140.544 298.624 298.616z" fill="#e6e6e6" p-id="3679"></path></svg>