<?xml version="1.0" standalone="no"?><!DOCTYPE svg PUBLIC "-//W3C//DTD SVG 1.1//EN" "http://www.w3.org/Graphics/SVG/1.1/DTD/svg11.dtd"><svg t="1547301262537" class="icon" style="" viewBox="0 0 1024 1024" version="1.1" xmlns="http://www.w3.org/2000/svg" p-id="1769" xmlns:xlink="http://www.w3.org/1999/xlink" width="200" height="200"><defs><style type="text/css"></style></defs><path d="M471.721 805.402c0 35.14-29.217 63.772-65.127 63.772-35.951 0-65.166-28.629-65.166-63.772 0-26.407-21.929-47.838-48.9-47.838-27.004 0-48.891 21.431-48.891 47.838 0 87.913 73.103 159.451 162.957 159.451 89.813 0 162.919-71.537 162.919-159.451v-229.205h-97.792v229.205zM542.094 149.002l-5.135-24.304c0-12.657-10.503-22.889-23.466-22.889-12.91 0-23.393 10.23-23.393 22.889l-7.198 24.304c-233.685 10.799-412.464 186.22-412.464 402.243h23.172c14.709-39.508 64.125-68.746 123.479-68.746 59.344 0 108.811 29.237 123.52 68.746h48.415c14.709-39.508 64.146-68.746 123.469-68.746 59.355 0 108.81 29.237 123.541 68.746h48.395c14.67-39.508 64.146-68.746 123.5-68.746 59.343 0 108.811 29.237 123.5 68.746h23.172c-0.003-215.376-179.762-390.556-412.508-402.243z" p-id="1770"></path></svg>