<?xml version="1.0" standalone="no"?><!DOCTYPE svg PUBLIC "-//W3C//DTD SVG 1.1//EN" "http://www.w3.org/Graphics/SVG/1.1/DTD/svg11.dtd"><svg t="1547303455843" class="icon" style="" viewBox="0 0 1038 1024" version="1.1" xmlns="http://www.w3.org/2000/svg" p-id="6587" xmlns:xlink="http://www.w3.org/1999/xlink" width="202.734375" height="200"><defs><style type="text/css"></style></defs><path d="M715.864084 159.019737c0-27.834952-22.851451-50.423413-50.971905-50.423413L104.228853 108.596324c-28.141944 0-50.971905 22.588461-50.971905 50.423413l0 705.959503c0 27.834952 22.829961 50.423413 50.971905 50.423413l560.663326 0c28.120454 0 50.971905-22.588461 50.971905-50.423413l50.970882 0c0 55.735395-45.63741 100.867292-101.942787 100.867292L104.228853 965.846532c-56.32789 0-101.942787-45.131897-101.942787-100.867292L2.286066 159.019737c0-55.735395 45.614897-100.867292 101.942787-100.867292l560.663326 0c56.305377 0 101.942787 45.131897 101.942787 100.867292l0 352.980263-50.970882 0L715.864084 159.019737 715.864084 159.019737zM792.320407 915.402653c-126.659725 0-229.371014-101.591793-229.371014-226.913033 0-125.299751 102.71129-226.913033 229.371014-226.913033 126.638235 0 229.349525 101.613282 229.349525 226.913033C1021.669932 813.81086 918.959665 915.402653 792.320407 915.402653L792.320407 915.402653zM792.320407 512c-98.540294 0-178.399109 79.025844-178.399109 176.490643 0 97.486288 79.859839 176.48962 178.399109 176.48962 98.518804 0 178.378643-79.003332 178.378643-176.48962C970.69905 591.024821 890.839211 512 792.320407 512L792.320407 512zM588.435856 310.287929 180.663686 310.287929c-14.048971 0-25.463951-11.282974-25.463951-25.199938 0-13.916964 11.414981-25.222451 25.463951-25.222451l407.771147 0c14.07046 0 25.486464 11.304464 25.486464 25.222451C613.921297 299.003931 602.506317 310.287929 588.435856 310.287929L588.435856 310.287929zM588.435856 461.57761 180.663686 461.57761c-14.048971 0-25.463951-11.305487-25.463951-25.222451 0-13.916964 11.414981-25.199938 25.463951-25.199938l407.771147 0c14.07046 0 25.486464 11.282974 25.486464 25.199938C613.921297 450.272124 602.506317 461.57761 588.435856 461.57761L588.435856 461.57761zM486.49307 612.844779 180.663686 612.844779c-14.048971 0-25.463951-11.282974-25.463951-25.199938 0-13.916964 11.414981-25.222451 25.463951-25.222451L486.49307 562.42239c14.07046 0 25.486464 11.305487 25.486464 25.222451C511.978511 601.561805 500.56353 612.844779 486.49307 612.844779L486.49307 612.844779zM486.49307 764.134461 180.663686 764.134461c-14.048971 0-25.463951-11.305487-25.463951-25.222451 0-13.916964 11.414981-25.199938 25.463951-25.199938L486.49307 713.712071c14.07046 0 25.486464 11.282974 25.486464 25.199938C511.978511 752.829997 500.56353 764.134461 486.49307 764.134461L486.49307 764.134461zM843.292312 713.712071l-101.942787 0c-14.07046 0-25.485441-11.305487-25.485441-25.222451 0-13.917988 11.414981-25.199938 25.485441-25.199938l101.942787 0c14.048971 0 25.463951 11.282974 25.463951 25.199938C868.756263 702.406584 857.341283 713.712071 843.292312 713.712071L843.292312 713.712071z" p-id="6588"></path></svg>