<?xml version="1.0" standalone="no"?><!DOCTYPE svg PUBLIC "-//W3C//DTD SVG 1.1//EN" "http://www.w3.org/Graphics/SVG/1.1/DTD/svg11.dtd"><svg t="1547302945832" class="icon" style="" viewBox="0 0 1024 1024" version="1.1" xmlns="http://www.w3.org/2000/svg" p-id="1020" xmlns:xlink="http://www.w3.org/1999/xlink" width="200" height="200"><defs><style type="text/css"></style></defs><path d="M817.152 957.44H207.36c-18.944 0-34.304-15.36-34.304-34.304V485.376c0-18.944 15.36-34.304 34.304-34.304h24.064V374.784c-0.512-8.192-1.024-16.896-1.024-25.6 0-155.648 126.464-282.112 282.112-282.112s282.112 126.464 282.112 282.112V450.56h23.04c18.944 0 34.304 15.36 34.304 34.304v437.248c0 19.968-15.36 35.328-34.816 35.328z m-322.048-226.304v79.36h34.304v-79.36c32.768-7.68 57.344-37.376 57.344-72.704 0-41.472-33.28-74.752-74.752-74.752s-74.752 33.28-74.752 74.752c0 34.816 25.088 64.512 57.856 72.704z m224.256-379.392v-2.048c0-114.688-92.672-207.36-207.36-207.36S305.152 235.008 305.152 349.696v101.376h414.72l-0.512-99.328z" p-id="1021"></path></svg>