<?xml version="1.0" standalone="no"?><!DOCTYPE svg PUBLIC "-//W3C//DTD SVG 1.1//EN" "http://www.w3.org/Graphics/SVG/1.1/DTD/svg11.dtd"><svg t="1547302920407" class="icon" style="" viewBox="0 0 1024 1024" version="1.1" xmlns="http://www.w3.org/2000/svg" p-id="855" xmlns:xlink="http://www.w3.org/1999/xlink" width="200" height="200"><defs><style type="text/css"></style></defs><path d="M685.2 327.1l-0.4-0.2c-4.2-1.9-8.5-2.8-12.9-2.8-11.8 0-23.3 6.7-28.8 18-7.6 15.6-1 34.8 14.7 42.6 6.7 3.5 64.7 36 64.7 124.2 0 49.7-15.7 81.9-28.8 100.2-14.5 20.2-29.5 28.8-31.2 29.7l-0.3 0.1c-15.8 7.9-22.2 27.1-14.3 42.9 5.5 10.9 16.5 17.7 28.7 17.7 4.9 0 9.8-1.2 14.2-3.4 3.9-2 95.5-50.1 95.5-187.3 0.1-132.1-96.9-179.7-101.1-181.7z m138.1-114.8c-5.2-3.4-11.1-5-17-5-10.5 0-20.8 5.1-27 14.6-9.5 14.6-5.4 34.5 9.3 44.2C793 269 895.8 338.9 895.8 512c0 71-17.1 135.5-49.4 186.5-25.7 40.6-52.1 58.8-53.2 59.6-14.7 9.8-18.7 29.7-8.9 44.4 5.9 8.9 15.9 14.2 26.6 14.2 6.3 0 12.4-1.9 17.7-5.4 1.4-0.9 34.6-23.2 67.2-72 42.4-63.4 63.9-139.9 63.9-227.3 0.1-210-130.8-296.2-136.4-299.7zM570.4 809.1c0 54.3-63.3 83.9-105 49.2L283.7 706.7H128c-35.3 0-64-28.7-64-64V381.4c0-35.4 28.8-64.1 64.2-64l154.3 0.5 183-152.3c41.7-34.7 104.9-5 104.9 49.2v594.3z" p-id="856"></path></svg>